<svg xmlns="http://www.w3.org/2000/svg" xmlns:xlink="http://www.w3.org/1999/xlink" width="1024" zoomAndPan="magnify" viewBox="0 0 768 767.999994" height="1024" preserveAspectRatio="xMidYMid meet" version="1.2"><metadata><ContainsAiGeneratedContent>Yes</ContainsAiGeneratedContent></metadata><defs/><g id="c47f8c1f6b"><g style="fill:#d6d7db;fill-opacity:1;"><g transform="translate(326.622058, 242.41892)"><path style="stroke:none" d="M 10.890625 0.28125 C 9.066406 0.28125 7.453125 -0.0859375 6.046875 -0.828125 C 4.648438 -1.578125 3.554688 -2.71875 2.765625 -4.25 C 1.972656 -5.789062 1.578125 -7.707031 1.578125 -10 C 1.578125 -12.28125 1.972656 -14.1875 2.765625 -15.71875 C 3.554688 -17.257812 4.648438 -18.40625 6.046875 -19.15625 C 7.453125 -19.90625 9.066406 -20.28125 10.890625 -20.28125 C 12.722656 -20.28125 14.335938 -19.90625 15.734375 -19.15625 C 17.128906 -18.414062 18.21875 -17.273438 19 -15.734375 C 19.789062 -14.191406 20.1875 -12.28125 20.1875 -10 C 20.1875 -7.707031 19.789062 -5.789062 19 -4.25 C 18.21875 -2.707031 17.128906 -1.566406 15.734375 -0.828125 C 14.335938 -0.0859375 12.722656 0.28125 10.890625 0.28125 Z M 10.890625 -3.140625 C 12.585938 -3.140625 13.882812 -3.679688 14.78125 -4.765625 C 15.675781 -5.859375 16.125 -7.601562 16.125 -10 C 16.125 -12.382812 15.675781 -14.125 14.78125 -15.21875 C 13.882812 -16.3125 12.585938 -16.859375 10.890625 -16.859375 C 9.191406 -16.859375 7.890625 -16.3125 6.984375 -15.21875 C 6.085938 -14.125 5.640625 -12.382812 5.640625 -10 C 5.640625 -7.601562 6.085938 -5.859375 6.984375 -4.765625 C 7.890625 -3.679688 9.191406 -3.140625 10.890625 -3.140625 Z M 10.890625 -3.140625 "/></g></g><g style="fill:#d6d7db;fill-opacity:1;"><g transform="translate(348.398321, 242.41892)"><path style="stroke:none" d="M 6.421875 0 L 2.59375 0 L 2.59375 -19.984375 L 7.125 -19.984375 L 15.15625 -7.109375 L 15.5 -7.171875 L 15.5 -19.984375 L 19.3125 -19.984375 L 19.3125 0 L 15.265625 0 L 6.765625 -13.75 L 6.421875 -13.703125 Z M 6.421875 0 "/></g></g><g style="fill:#d6d7db;fill-opacity:1;"><g transform="translate(370.311284, 242.41892)"><path style="stroke:none" d="M 6.546875 -19.984375 L 6.546875 -3.3125 L 15.53125 -3.3125 L 15.53125 0 L 2.59375 0 L 2.59375 -19.984375 Z M 6.546875 -19.984375 "/></g></g><g style="fill:#d6d7db;fill-opacity:1;"><g transform="translate(386.496524, 242.41892)"><path style="stroke:none" d="M 6.546875 0 L 2.59375 0 L 2.59375 -19.984375 L 6.546875 -19.984375 Z M 6.546875 0 "/></g></g><g style="fill:#d6d7db;fill-opacity:1;"><g transform="translate(395.655402, 242.41892)"><path style="stroke:none" d="M 6.421875 0 L 2.59375 0 L 2.59375 -19.984375 L 7.125 -19.984375 L 15.15625 -7.109375 L 15.5 -7.171875 L 15.5 -19.984375 L 19.3125 -19.984375 L 19.3125 0 L 15.265625 0 L 6.765625 -13.75 L 6.421875 -13.703125 Z M 6.421875 0 "/></g></g><g style="fill:#d6d7db;fill-opacity:1;"><g transform="translate(417.568365, 242.41892)"><path style="stroke:none" d="M 6.546875 -8.78125 L 6.546875 -3.3125 L 16.09375 -3.3125 L 16.09375 0 L 2.59375 0 L 2.59375 -19.984375 L 15.875 -19.984375 L 15.875 -16.6875 L 6.546875 -16.6875 L 6.546875 -12 L 14.703125 -12 L 14.703125 -8.78125 Z M 6.546875 -8.78125 "/></g></g><g style="fill:#d6d7db;fill-opacity:1;"><g transform="translate(434.762678, 242.41892)"><path style="stroke:none" d=""/></g></g><g style="fill:#d6d7db;fill-opacity:1;"><g transform="translate(284.598623, 281.418918)"><path style="stroke:none" d="M 6.546875 -8.78125 L 6.546875 -3.3125 L 16.09375 -3.3125 L 16.09375 0 L 2.59375 0 L 2.59375 -19.984375 L 15.875 -19.984375 L 15.875 -16.6875 L 6.546875 -16.6875 L 6.546875 -12 L 14.703125 -12 L 14.703125 -8.78125 Z M 6.546875 -8.78125 "/></g></g><g style="fill:#d6d7db;fill-opacity:1;"><g transform="translate(301.781776, 281.418918)"><path style="stroke:none" d="M 4.390625 0 L 0.34375 0 L 6.265625 -10.28125 L 0.625 -19.984375 L 4.828125 -19.984375 L 8.96875 -12.828125 L 9.3125 -12.828125 L 13.515625 -19.984375 L 17.515625 -19.984375 L 11.875 -10.28125 L 17.796875 0 L 13.625 0 L 9.171875 -7.71875 L 8.828125 -7.71875 Z M 4.390625 0 "/></g></g><g style="fill:#d6d7db;fill-opacity:1;"><g transform="translate(319.921828, 281.418918)"><path style="stroke:none" d="M 19.1875 0 L 15.03125 0 L 13.515625 -4.609375 L 5.859375 -4.609375 L 4.359375 0 L 0.296875 0 L 7.203125 -19.984375 L 12.28125 -19.984375 Z M 9.5 -15.8125 L 6.9375 -7.9375 L 12.421875 -7.9375 L 9.84375 -15.8125 Z M 9.5 -15.8125 "/></g></g><g style="fill:#d6d7db;fill-opacity:1;"><g transform="translate(339.401537, 281.418918)"><path style="stroke:none" d="M 6.21875 0 L 2.59375 0 L 2.59375 -19.984375 L 7.765625 -19.984375 L 12.828125 -5.296875 L 13.109375 -5.296875 L 18.140625 -19.984375 L 23.1875 -19.984375 L 23.1875 0 L 19.4375 0 L 19.4375 -13.203125 L 19.09375 -13.265625 L 14.484375 0 L 11.1875 0 L 6.5625 -13.265625 L 6.21875 -13.203125 Z M 6.21875 0 "/></g></g><g style="fill:#d6d7db;fill-opacity:1;"><g transform="translate(365.19677, 281.418918)"><path style="stroke:none" d="M 6.546875 0 L 2.59375 0 L 2.59375 -19.984375 L 6.546875 -19.984375 Z M 6.546875 0 "/></g></g><g style="fill:#d6d7db;fill-opacity:1;"><g transform="translate(374.355648, 281.418918)"><path style="stroke:none" d="M 6.421875 0 L 2.59375 0 L 2.59375 -19.984375 L 7.125 -19.984375 L 15.15625 -7.109375 L 15.5 -7.171875 L 15.5 -19.984375 L 19.3125 -19.984375 L 19.3125 0 L 15.265625 0 L 6.765625 -13.75 L 6.421875 -13.703125 Z M 6.421875 0 "/></g></g><g style="fill:#d6d7db;fill-opacity:1;"><g transform="translate(396.268611, 281.418918)"><path style="stroke:none" d="M 19.1875 0 L 15.03125 0 L 13.515625 -4.609375 L 5.859375 -4.609375 L 4.359375 0 L 0.296875 0 L 7.203125 -19.984375 L 12.28125 -19.984375 Z M 9.5 -15.8125 L 6.9375 -7.9375 L 12.421875 -7.9375 L 9.84375 -15.8125 Z M 9.5 -15.8125 "/></g></g><g style="fill:#d6d7db;fill-opacity:1;"><g transform="translate(413.971132, 281.418918)"><path style="stroke:none" d="M 16.03125 -19.984375 L 16.03125 -16.671875 L 10.25 -16.671875 L 10.25 0 L 6.3125 0 L 6.3125 -16.671875 L 0.546875 -16.671875 L 0.546875 -19.984375 Z M 16.03125 -19.984375 "/></g></g><g style="fill:#d6d7db;fill-opacity:1;"><g transform="translate(430.539132, 281.418918)"><path style="stroke:none" d="M 6.546875 0 L 2.59375 0 L 2.59375 -19.984375 L 6.546875 -19.984375 Z M 6.546875 0 "/></g></g><g style="fill:#d6d7db;fill-opacity:1;"><g transform="translate(439.69801, 281.418918)"><path style="stroke:none" d="M 10.890625 0.28125 C 9.066406 0.28125 7.453125 -0.0859375 6.046875 -0.828125 C 4.648438 -1.578125 3.554688 -2.71875 2.765625 -4.25 C 1.972656 -5.789062 1.578125 -7.707031 1.578125 -10 C 1.578125 -12.28125 1.972656 -14.1875 2.765625 -15.71875 C 3.554688 -17.257812 4.648438 -18.40625 6.046875 -19.15625 C 7.453125 -19.90625 9.066406 -20.28125 10.890625 -20.28125 C 12.722656 -20.28125 14.335938 -19.90625 15.734375 -19.15625 C 17.128906 -18.414062 18.21875 -17.273438 19 -15.734375 C 19.789062 -14.191406 20.1875 -12.28125 20.1875 -10 C 20.1875 -7.707031 19.789062 -5.789062 19 -4.25 C 18.21875 -2.707031 17.128906 -1.566406 15.734375 -0.828125 C 14.335938 -0.0859375 12.722656 0.28125 10.890625 0.28125 Z M 10.890625 -3.140625 C 12.585938 -3.140625 13.882812 -3.679688 14.78125 -4.765625 C 15.675781 -5.859375 16.125 -7.601562 16.125 -10 C 16.125 -12.382812 15.675781 -14.125 14.78125 -15.21875 C 13.882812 -16.3125 12.585938 -16.859375 10.890625 -16.859375 C 9.191406 -16.859375 7.890625 -16.3125 6.984375 -15.21875 C 6.085938 -14.125 5.640625 -12.382812 5.640625 -10 C 5.640625 -7.601562 6.085938 -5.859375 6.984375 -4.765625 C 7.890625 -3.679688 9.191406 -3.140625 10.890625 -3.140625 Z M 10.890625 -3.140625 "/></g></g><g style="fill:#d6d7db;fill-opacity:1;"><g transform="translate(461.474273, 281.418918)"><path style="stroke:none" d="M 6.421875 0 L 2.59375 0 L 2.59375 -19.984375 L 7.125 -19.984375 L 15.15625 -7.109375 L 15.5 -7.171875 L 15.5 -19.984375 L 19.3125 -19.984375 L 19.3125 0 L 15.265625 0 L 6.765625 -13.75 L 6.421875 -13.703125 Z M 6.421875 0 "/></g></g></g></svg>